# xmcd
#
# Track frame offsets: 
#        182
#        16740
#        29410
#        44560
#        58117
#        79972
#        95415
#        118387
#        135240
#        151942
#        167872
#        192377
#
# Disc length: 3027 seconds
#
# Revision: 17
# Processed by: cddbd v1.5.2PL0 Copyright (c) Steve Scherf et al.
# Submitted via: ExactAudioCopy v1.2
#
DISCID=9f0bd10c
DTITLE=Paul McCartney - Off The Ground
DYEAR=1993
DGENRE=Rock
TTITLE0=Off The Ground
TTITLE1=Looking For Changes
TTITLE2=Hope Of Deliverance
TTITLE3=Mistress And Maid
TTITLE4=I Owe It All To You
TTITLE5=Biker Like An Icon
TTITLE6=Peace In The Neighbourhood
TTITLE7=Golden Earth Girl
TTITLE8=The Lovers That Never Were
TTITLE9=Get Out Of My Way
TTITLE10=Winedark Open Sea
TTITLE11=C'mon People
EXTD=YEAR: 1993
EXTT0=
EXTT1=
EXTT2=
EXTT3=
EXTT4=
EXTT5=
EXTT6=
EXTT7=
EXTT8=
EXTT9=
EXTT10=
EXTT11=
PLAYORDER=
